<?xml version="1.0" standalone="no"?>
<!DOCTYPE svg PUBLIC "-//W3C//DTD SVG 20010904//EN"
 "http://www.w3.org/TR/2001/REC-SVG-20010904/DTD/svg10.dtd">
<svg version="1.0" xmlns="http://www.w3.org/2000/svg"
 width="2000.000000pt" height="2000.000000pt" viewBox="0 0 2000.000000 2000.000000"
 preserveAspectRatio="xMidYMid meet">
<metadata>
Created by potrace 1.14, written by Peter Selinger 2001-2017
</metadata>
<g transform="translate(0.000000,2000.000000) scale(0.100000,-0.100000)"
fill="#000000" stroke="none">
<path d="M55 13056 c-17 -7 -36 -25 -43 -40 -9 -21 -12 -666 -12 -2962 l0
-2936 29 -29 29 -29 1191 0 c877 0 1197 3 1215 12 19 8 99 139 313 510 222
386 294 503 316 515 35 18 77 10 105 -20 11 -12 145 -238 297 -502 152 -264
287 -488 298 -497 21 -16 100 -18 1219 -18 l1197 0 28 24 28 24 3 2942 c2
3269 8 2989 -66 3010 -25 8 -223 10 -629 8 l-593 -3 -23 -25 c-14 -14 -221
-367 -462 -785 -240 -418 -450 -772 -466 -787 -36 -34 -79 -36 -113 -5 -14 12
-177 285 -362 607 -185 322 -347 595 -360 608 -16 14 -38 22 -59 22 -21 0 -43
-8 -59 -22 -13 -13 -176 -286 -361 -608 -185 -322 -347 -595 -361 -607 -46
-42 -106 -25 -145 40 -14 23 -216 373 -449 777 -233 404 -434 746 -447 760
l-23 25 -603 2 c-483 2 -608 0 -632 -11z"/>
<path d="M6925 13061 c-11 -5 -29 -19 -40 -31 -20 -22 -20 -38 -23 -2939 -1
-1604 0 -2931 3 -2950 4 -18 18 -44 32 -57 l26 -24 2535 0 2536 0 540 312
c298 171 553 322 569 336 l27 26 0 756 c0 726 -1 757 -19 776 -10 12 -290 177
-622 368 -332 191 -614 359 -626 372 -25 28 -29 60 -11 98 8 20 163 114 622
378 336 194 621 363 634 375 l22 22 0 755 0 755 -22 24 c-13 14 -268 166 -568
338 l-545 314 -2525 2 c-1389 1 -2534 -2 -2545 -6z"/>
<path d="M13785 13056 c-17 -7 -36 -25 -43 -40 -9 -21 -12 -666 -12 -2962 l0
-2936 29 -29 29 -29 1199 0 c1120 0 1199 2 1219 18 12 9 149 238 304 507 155
270 289 496 298 503 29 22 63 25 96 9 26 -12 76 -94 318 -514 216 -374 294
-503 313 -511 19 -9 334 -12 1216 -12 l1191 0 29 29 29 29 0 966 0 965 -22 24
c-13 14 -373 226 -801 473 -618 356 -782 454 -793 477 -19 35 -11 77 19 105
12 11 364 216 782 457 418 241 772 450 788 466 l27 29 0 956 c0 1064 4 1003
-68 1024 -26 8 -390 10 -1214 8 l-1178 -3 -23 -25 c-13 -14 -147 -239 -297
-500 -149 -261 -283 -485 -296 -497 -16 -15 -38 -23 -59 -23 -21 0 -43 8 -58
23 -14 12 -147 236 -297 497 -150 261 -283 486 -297 500 l-23 25 -1188 2
c-967 2 -1193 0 -1217 -11z"/>
</g>
</svg>
